<svg width="100" height="100" viewBox="0 0 100 100" fill="none" xmlns="http://www.w3.org/2000/svg">
<path d="M50 0C22.379 0 0 22.379 0 50C0 77.621 22.379 100 50 100C77.621 100 100 77.621 100 50C100 22.379 77.621 0 50 0ZM79.0323 77.9032V54.8387C79.0323 52.1774 76.8548 50 74.1936 50C71.5323 50 69.3548 52.1774 69.3548 54.8387V85.3629C63.6089 88.5081 57.0161 90.3226 50 90.3226C42.9839 90.3226 36.3911 88.5081 30.6452 85.3629V54.8387C30.6452 52.1774 28.4677 50 25.8065 50C23.1452 50 20.9677 52.1774 20.9677 54.8387V77.9032C13.9919 70.6452 9.67742 60.8266 9.67742 50C9.67742 27.7621 27.7621 9.67742 50 9.67742C72.2379 9.67742 90.3226 27.7621 90.3226 50C90.3226 60.8266 86.0081 70.6653 79.0323 77.9032ZM41.4919 45.6653C42.379 45.1815 42.8831 44.1734 42.7218 43.1653C41.9153 38.0847 35.8266 34.6774 30.6653 34.6774C25.504 34.6774 19.3952 38.0847 18.6089 43.1653C18.4476 44.1734 18.9516 45.1815 19.8387 45.6653C20.7258 46.1492 21.8347 46.0282 22.6008 45.3427L24.5161 43.629C27.5 40.9677 33.8306 40.9677 36.8145 43.629L38.7298 45.3427C39.2339 45.8064 40.3226 46.3105 41.4919 45.6653ZM69.3548 34.6774C64.1734 34.6774 58.0847 38.0847 57.2984 43.1653C57.1371 44.1734 57.6411 45.1815 58.5282 45.6653C59.4355 46.1492 60.5242 46.0282 61.2903 45.3427L63.2056 43.629C66.1895 40.9677 72.5202 40.9677 75.504 43.629L77.4194 45.3427C77.9234 45.7863 79.0323 46.2903 80.1815 45.6653C81.0686 45.1815 81.5726 44.1734 81.4113 43.1653C80.625 38.0847 74.5363 34.6774 69.3548 34.6774ZM50 53.2258C43.7702 53.2258 38.7097 59.0121 38.7097 66.129C38.7097 73.246 43.7702 79.0323 50 79.0323C56.2298 79.0323 61.2903 73.246 61.2903 66.129C61.2903 59.0121 56.2298 53.2258 50 53.2258Z" fill="#ABB8C4"/>
</svg>
