<svg width="20" height="19" viewBox="0 0 20 19" fill="none" xmlns="http://www.w3.org/2000/svg">
<path d="M5 18H15M4 4L10 3L16 4M4 4L7 10C7 10.7956 6.68393 11.5587 6.12132 12.1213C5.55871 12.6839 4.79565 13 4 13C3.20435 13 2.44129 12.6839 1.87868 12.1213C1.31607 11.5587 1 10.7956 1 10L4 4ZM16 4L19 10C19 10.7956 18.6839 11.5587 18.1213 12.1213C17.5587 12.6839 16.7956 13 16 13C15.2044 13 14.4413 12.6839 13.8787 12.1213C13.3161 11.5587 13 10.7956 13 10L16 4ZM10 1V18" stroke="#91A0A5" stroke-width="2" stroke-linecap="round" stroke-linejoin="round"/>
</svg>
