<svg width="18" height="20" viewBox="0 0 18 20" fill="none" xmlns="http://www.w3.org/2000/svg">
<path d="M6.00024 9V4C6.00024 3.20435 6.31631 2.44129 6.87892 1.87868C7.44153 1.31607 8.20459 1 9.00024 1C9.79589 1 10.559 1.31607 11.1216 1.87868C11.6842 2.44129 12.0002 3.20435 12.0002 4V9M3.33129 6H14.6703C14.9587 5.99997 15.2436 6.06229 15.5057 6.1827C15.7677 6.30311 16.0006 6.47876 16.1883 6.6976C16.3761 6.91645 16.5144 7.17331 16.5936 7.45059C16.6728 7.72786 16.6911 8.01898 16.6473 8.304L15.3923 16.456C15.2833 17.1644 14.9243 17.8105 14.3803 18.2771C13.8362 18.7438 13.1431 19.0002 12.4263 19H5.57429C4.85769 19 4.16477 18.7434 3.62092 18.2768C3.07707 17.8102 2.71822 17.1643 2.60929 16.456L1.35429 8.304C1.31046 8.01898 1.32878 7.72786 1.408 7.45059C1.48722 7.17331 1.62545 6.91645 1.81324 6.6976C2.00102 6.47876 2.23391 6.30311 2.49594 6.1827C2.75796 6.06229 3.04293 5.99997 3.33129 6Z" stroke="#91A0A5" stroke-width="2" stroke-linecap="round" stroke-linejoin="round"/>
</svg>
